<?xml version="1.0" standalone="no"?>
<!DOCTYPE svg PUBLIC "-//W3C//DTD SVG 20010904//EN"
 "http://www.w3.org/TR/2001/REC-SVG-20010904/DTD/svg10.dtd">
<svg version="1.0" xmlns="http://www.w3.org/2000/svg"
 width="360.000000pt" height="360.000000pt" viewBox="0 0 360.000000 360.000000"
 preserveAspectRatio="xMidYMid meet">

<g transform="translate(0.000000,360.000000) scale(0.100000,-0.100000)"
fill="#000000" stroke="none">
<path d="M1664 3295 c-130 -28 -247 -112 -297 -212 -27 -54 -41 -108 -58 -238
-8 -56 -19 -99 -31 -114 -38 -50 -14 -214 41 -268 15 -16 37 -50 49 -75 59
-134 170 -262 276 -320 55 -30 69 -33 146 -33 73 0 93 4 142 28 109 54 219
178 285 323 14 33 32 63 40 67 49 30 84 219 49 271 -10 17 -16 47 -16 88 -1
194 -91 361 -238 441 -98 53 -258 70 -388 42z m9 -431 c51 -10 100 -14 136
-10 184 20 185 20 240 -7 l51 -26 -6 24 c-19 75 63 -28 85 -108 8 -27 20 -46
34 -52 32 -14 36 -108 7 -164 -11 -23 -26 -41 -33 -41 -8 0 -35 -43 -61 -95
-112 -225 -288 -320 -449 -242 -81 40 -167 137 -219 247 -24 49 -48 89 -54 90
-53 1 -84 194 -33 207 10 3 21 18 24 33 10 48 62 118 102 139 47 25 74 25 176
5z"/>
<path d="M1290 2000 c-93 -9 -159 -24 -203 -47 -82 -42 -167 -153 -212 -278
-24 -64 -32 -77 -64 -92 -37 -18 -77 -69 -87 -110 -8 -29 153 -968 172 -1004
7 -15 28 -38 46 -51 l33 -23 825 0 825 0 33 23 c18 13 39 36 46 51 19 36 180
975 172 1004 -10 41 -50 92 -87 110 -31 15 -40 28 -59 80 -46 128 -135 248
-216 290 -47 24 -108 37 -220 47 l-107 9 -49 -44 c-71 -63 -148 -86 -309 -92
-106 -5 -139 -2 -209 16 -86 21 -150 56 -183 98 -10 13 -28 22 -40 22 -12 -1
-60 -5 -107 -9z m1488 -460 c18 -11 40 -36 48 -56 14 -33 10 -61 -62 -482 -41
-246 -81 -465 -87 -487 -8 -26 -23 -47 -46 -62 l-34 -23 -796 0 c-778 0 -797
1 -829 20 -18 11 -37 30 -42 42 -6 13 -26 113 -44 223 -19 110 -55 321 -81
470 -44 255 -46 271 -31 302 9 18 30 42 48 53 32 20 52 20 978 20 930 0 946 0
978 -20z"/>
<path d="M1752 1057 c-28 -29 -28 -57 -1 -91 13 -17 30 -26 49 -26 33 0 70 40
70 75 0 29 -40 65 -71 65 -14 0 -35 -10 -47 -23z"/>
<path d="M958 349 c-22 -13 -23 -45 -2 -53 20 -8 1668 -8 1688 0 22 8 20 41
-2 53 -25 13 -1661 14 -1684 0z"/>
</g>
</svg>
