<?xml version="1.0" standalone="no"?>
<!DOCTYPE svg PUBLIC "-//W3C//DTD SVG 20010904//EN"
 "http://www.w3.org/TR/2001/REC-SVG-20010904/DTD/svg10.dtd">
<svg version="1.0" xmlns="http://www.w3.org/2000/svg"
 width="500.000000pt" height="500.000000pt" viewBox="0 0 500.000000 500.000000"
 preserveAspectRatio="xMidYMid meet">

<g transform="translate(0.000000,500.000000) scale(0.100000,-0.100000)"
fill="#000000" stroke="none">
<path d="M3928 4878 l-358 -120 0 -409 0 -409 90 0 90 0 0 326 0 326 29 29 29
29 475 0 475 0 31 -26 31 -26 0 -329 0 -329 90 0 90 0 0 409 0 409 -342 115
c-189 64 -350 118 -358 120 -8 3 -176 -49 -372 -115z"/>
<path d="M2555 4456 c-17 -7 -36 -25 -43 -40 -9 -21 -12 -474 -12 -2047 0
-2246 -6 -2068 68 -2088 22 -7 161 -11 340 -11 l302 0 0 90 0 90 -265 0 -265
0 0 985 0 985 265 0 265 0 0 85 0 85 -265 0 -265 0 0 850 0 850 265 0 265 0 0
90 0 90 -312 0 c-236 -1 -320 -4 -343 -14z"/>
<path d="M3937 4463 c-4 -3 -7 -123 -7 -265 l0 -258 355 0 355 0 0 265 0 265
-348 0 c-192 0 -352 -3 -355 -7z"/>
<path d="M0 3875 c0 -179 3 -325 8 -325 4 1 43 20 87 43 l80 42 0 280 0 280
-87 3 -88 3 0 -326z"/>
<path d="M720 3875 l0 -324 83 38 82 38 3 286 2 287 -85 0 -85 0 0 -325z"/>
<path d="M1430 3875 c0 -179 2 -325 5 -325 3 0 41 18 85 40 l80 40 0 285 0
285 -85 0 -85 0 0 -325z"/>
<path d="M258 3469 l-258 -129 0 -370 0 -370 90 0 90 0 0 240 0 241 25 24 24
25 660 0 660 0 27 -24 c24 -20 28 -32 32 -90 l4 -66 174 0 174 0 0 325 c0 179
-2 325 -5 325 -3 0 -136 -65 -295 -145 -317 -159 -341 -166 -385 -119 -24 25
-25 33 -25 145 0 66 -2 119 -4 119 -3 0 -138 -65 -302 -145 -166 -81 -309
-145 -325 -145 -15 0 -41 11 -56 24 -27 24 -28 27 -32 145 -2 67 -6 121 -10
120 -3 0 -122 -58 -263 -130z"/>
<path d="M3925 3002 l-350 -117 -3 -412 -2 -413 90 0 90 0 0 330 0 331 25 24
24 25 486 0 486 0 24 -25 25 -24 0 -331 0 -330 90 0 90 0 0 413 0 412 -353
118 c-194 64 -357 117 -362 117 -6 -1 -167 -54 -360 -118z"/>
<path d="M361 2593 c0 -281 3 -354 12 -339 69 110 149 161 252 161 49 0 74 -6
120 -30 l58 -30 61 30 c107 53 228 34 308 -49 20 -20 41 -50 48 -66 l12 -30
99 0 99 0 -2 353 -3 352 -532 3 -533 2 1 -357z"/>
<path d="M1611 2503 c0 -212 3 -264 12 -249 69 110 149 161 252 161 103 0 183
-51 252 -161 9 -15 12 13 12 141 l1 160 -108 108 -107 107 -158 0 -157 0 1
-267z"/>
<path d="M3930 2325 l0 -265 355 0 355 0 0 265 0 265 -355 0 -355 0 0 -265z"/>
<path d="M565 2205 c-35 -34 -33 -78 4 -116 38 -38 74 -38 112 0 56 57 23 141
-56 141 -25 0 -44 -8 -60 -25z"/>
<path d="M922 2207 c-31 -33 -30 -90 3 -122 67 -67 175 18 131 103 -17 33 -34
42 -80 42 -21 0 -40 -8 -54 -23z"/>
<path d="M1815 2205 c-35 -34 -33 -78 4 -116 38 -38 74 -38 112 0 56 57 23
141 -56 141 -25 0 -44 -8 -60 -25z"/>
<path d="M3930 951 l-355 -117 -3 -412 -2 -412 90 0 90 0 0 326 0 326 29 29
29 29 472 0 c483 0 498 -1 527 -39 9 -12 12 -102 13 -343 l0 -328 90 0 90 0
-2 412 -3 411 -310 104 c-170 57 -330 109 -355 117 -45 13 -46 13 -400 -103z"/>
<path d="M3930 275 l0 -265 355 0 355 0 0 265 0 265 -355 0 -355 0 0 -265z"/>
</g>
</svg>
