<?xml version="1.0" standalone="no"?>
<!DOCTYPE svg PUBLIC "-//W3C//DTD SVG 20010904//EN"
 "http://www.w3.org/TR/2001/REC-SVG-20010904/DTD/svg10.dtd">
<svg version="1.0" xmlns="http://www.w3.org/2000/svg"
 width="490.000000pt" height="509.000000pt" viewBox="0 0 490.000000 509.000000"
 preserveAspectRatio="xMidYMid meet">

<g transform="translate(0.000000,509.000000) scale(0.100000,-0.100000)"
fill="#000000" stroke="none">
<path d="M2193 4830 c-160 -29 -285 -127 -334 -262 -12 -35 -16 -38 -54 -38
-22 0 -62 -6 -90 -14 -152 -40 -243 -145 -276 -318 -16 -86 4 -197 55 -301
l36 -72 -31 -60 c-32 -62 -33 -82 -17 -235 3 -24 0 -25 -62 -30 l-65 -5 -7
-180 c-4 -99 -21 -526 -37 -950 -17 -424 -33 -815 -37 -871 l-6 -101 -35 -12
c-70 -26 -98 -131 -49 -188 l24 -28 1220 0 1220 0 25 23 c57 54 40 142 -37
187 l-46 27 0 648 0 648 -375 -149 c-207 -82 -378 -149 -380 -149 -3 0 -5 70
-5 156 0 123 -3 155 -13 151 -7 -3 -190 -73 -406 -157 -216 -83 -395 -150
-397 -147 -5 5 -66 1088 -62 1092 2 1 28 -1 58 -6 30 -4 118 -11 195 -15 216
-10 338 17 428 95 75 66 112 197 88 309 l-11 52 41 52 c77 101 139 258 139
351 0 50 -38 187 -67 246 -57 111 -180 202 -324 236 -82 19 -239 27 -306 15z
m227 -141 c120 -28 239 -118 282 -216 26 -59 33 -144 19 -215 -12 -55 -55
-152 -86 -192 -15 -19 -16 -19 -55 3 -59 33 -95 41 -135 30 -19 -6 -35 -13
-35 -17 0 -4 16 -16 36 -27 73 -39 144 -142 144 -209 0 -55 -78 -143 -159
-179 -50 -22 -88 -24 -401 -17 -198 4 -207 3 -258 -19 -32 -15 -70 -43 -97
-73 l-45 -50 0 64 c0 76 21 163 57 238 26 54 99 134 198 217 l50 42 -33 0
c-18 1 -71 -15 -119 -34 -118 -48 -145 -47 -180 7 -69 104 -6 277 123 337 29
14 75 24 127 28 45 3 88 10 95 16 7 5 34 46 61 91 69 114 116 153 208 175 53
12 149 12 203 0z m-50 -2629 l0 -120 -115 0 -115 0 0 120 0 120 115 0 115 0 0
-120z m495 0 l0 -115 -115 0 -115 0 -3 104 c-1 58 0 111 2 118 4 11 31 13 118
11 l113 -3 0 -115z m485 0 l0 -120 -115 0 -115 0 0 120 0 120 115 0 115 0 0
-120z m-980 -370 l0 -120 -115 0 -115 0 0 120 0 120 115 0 115 0 0 -120z m495
0 l0 -115 -115 0 -115 0 -3 104 c-1 58 0 111 2 118 4 11 31 13 118 11 l113 -3
0 -115z m485 0 l0 -120 -115 0 -115 0 0 120 0 120 115 0 115 0 0 -120z"/>
</g>
</svg>
