<?xml version="1.0" standalone="no"?>
<!DOCTYPE svg PUBLIC "-//W3C//DTD SVG 20010904//EN"
 "http://www.w3.org/TR/2001/REC-SVG-20010904/DTD/svg10.dtd">
<svg version="1.0" xmlns="http://www.w3.org/2000/svg"
 width="500.000000pt" height="500.000000pt" viewBox="0 0 500.000000 500.000000"
 preserveAspectRatio="xMidYMid meet">

<g transform="translate(0.000000,500.000000) scale(0.100000,-0.100000)"
fill="#000000" stroke="none">
<path d="M888 3524 c-56 -30 -67 -109 -21 -156 l27 -28 1202 0 c662 0 1205 -3
1207 -7 4 -8 -12 -83 -260 -1163 -75 -327 -152 -667 -172 -755 l-37 -160 -277
0 -278 0 -23 66 c-53 153 -184 275 -345 323 -77 23 -213 21 -293 -4 -158 -48
-296 -188 -343 -345 l-12 -40 -179 -5 c-222 -6 -244 -16 -244 -107 0 -30 7
-46 28 -66 l28 -27 181 0 180 0 21 -61 c30 -89 79 -164 144 -223 253 -231 656
-157 808 146 22 44 40 88 40 98 0 10 6 22 13 29 15 12 1245 16 1262 3 6 -4 18
-33 28 -64 36 -115 136 -232 249 -289 287 -145 623 -11 731 292 l23 64 106 5
c123 6 140 15 157 88 6 26 45 229 87 452 82 443 82 439 43 610 -24 104 -99
260 -170 354 -96 126 -245 236 -403 297 -140 54 -191 59 -597 59 -324 0 -369
2 -369 15 0 9 25 127 55 263 32 143 53 258 50 273 -3 15 -17 37 -31 50 l-26
24 -1281 2 c-1118 2 -1285 0 -1309 -13z m3397 -846 c117 -40 199 -92 295 -188
126 -126 186 -243 209 -401 10 -71 8 -87 -61 -456 l-72 -383 -42 0 -42 0 -18
56 c-49 156 -189 290 -353 338 -77 23 -213 21 -292 -4 -73 -22 -167 -81 -221
-137 -50 -52 -104 -144 -119 -204 l-13 -49 -254 0 -254 0 7 38 c7 41 313 1377
321 1405 5 17 27 18 417 15 l412 -4 80 -26z m-2383 -1246 c57 -28 122 -92 150
-146 30 -57 36 -177 13 -245 -22 -69 -99 -151 -167 -182 -78 -35 -184 -33
-260 4 -72 35 -141 111 -164 179 -21 64 -16 187 11 238 39 76 114 142 188 166
62 20 172 13 229 -14z m2275 7 c68 -26 138 -92 173 -164 35 -73 34 -180 -1
-256 -97 -207 -371 -250 -518 -82 -154 174 -75 445 149 514 50 15 138 9 197
-12z"/>
<path d="M474 3110 c-71 -28 -70 -146 1 -178 19 -9 147 -12 471 -12 l446 0 29
29 c41 41 41 101 0 142 l-29 29 -449 -1 c-246 0 -458 -4 -469 -9z"/>
<path d="M280 2493 c-30 -11 -60 -47 -66 -78 -7 -37 16 -89 45 -105 13 -6 215
-10 579 -10 l559 0 27 26 c28 29 36 87 16 125 -27 49 -31 49 -607 48 -296 0
-545 -3 -553 -6z"/>
<path d="M53 1858 c-31 -15 -56 -72 -48 -108 4 -16 20 -41 37 -55 l30 -25 660
0 660 0 29 29 c41 41 41 101 0 142 l-29 29 -659 -1 c-442 0 -665 -4 -680 -11z"/>
</g>
</svg>
