<?xml version="1.0" standalone="no"?>
<!DOCTYPE svg PUBLIC "-//W3C//DTD SVG 20010904//EN"
 "http://www.w3.org/TR/2001/REC-SVG-20010904/DTD/svg10.dtd">
<svg version="1.0" xmlns="http://www.w3.org/2000/svg"
 width="421.000000pt" height="423.000000pt" viewBox="0 0 421.000000 423.000000"
 preserveAspectRatio="xMidYMid meet">

<g transform="translate(0.000000,423.000000) scale(0.100000,-0.100000)"
fill="#000000" stroke="none">
<path d="M1830 3871 c-266 -41 -535 -150 -760 -309 -122 -86 -326 -290 -412
-412 -215 -304 -328 -660 -328 -1033 0 -370 113 -722 332 -1032 81 -115 288
-322 403 -403 636 -448 1470 -442 2090 15 117 86 303 275 383 388 218 308 332
662 332 1032 0 373 -113 729 -328 1033 -86 122 -290 326 -412 412 -232 164
-519 278 -788 313 -148 20 -368 18 -512 -4z m388 -399 c31 -50 84 -85 161
-106 86 -23 141 -57 202 -125 117 -129 151 -305 99 -512 -9 -34 -9 -52 -1 -67
37 -69 -39 -289 -157 -457 -24 -33 -38 -67 -43 -100 -9 -65 -73 -198 -151
-316 -35 -52 -66 -99 -70 -105 -5 -7 3 -9 21 -6 43 6 105 -32 161 -99 27 -33
50 -64 50 -70 0 -5 4 -9 9 -9 9 0 48 236 58 350 3 38 8 70 10 70 3 0 17 -8 31
-19 36 -24 166 -81 277 -121 142 -51 223 -91 268 -135 65 -62 176 -291 206
-426 8 -36 6 -41 -43 -101 -228 -275 -566 -472 -926 -540 -161 -31 -399 -31
-560 0 -360 68 -698 265 -926 540 l-52 63 14 53 c38 147 136 347 196 406 52
50 113 82 236 125 121 42 275 109 313 136 42 29 49 24 49 -33 0 -47 30 -276
46 -352 l6 -30 21 30 c46 62 121 134 154 145 19 6 46 8 60 4 l25 -6 -29 38
c-89 113 -203 338 -203 399 0 23 -11 55 -30 85 -16 27 -41 76 -56 110 -14 34
-32 71 -39 83 -26 39 -65 178 -65 229 0 32 6 57 16 68 13 14 14 28 3 104 -6
48 -10 135 -7 194 3 93 7 113 33 166 55 112 214 249 348 300 39 15 51 16 76 5
20 -8 35 -9 47 -2 9 5 25 7 35 5 11 -3 19 0 19 6 0 19 47 61 67 61 10 0 28
-17 41 -38z"/>
</g>
</svg>
