<?xml version="1.0" standalone="no"?>
<!DOCTYPE svg PUBLIC "-//W3C//DTD SVG 20010904//EN"
 "http://www.w3.org/TR/2001/REC-SVG-20010904/DTD/svg10.dtd">
<svg version="1.0" xmlns="http://www.w3.org/2000/svg"
 width="200.000000pt" height="200.000000pt" viewBox="0 0 200.000000 200.000000"
 preserveAspectRatio="xMidYMid meet">

<g transform="translate(0.000000,200.000000) scale(0.100000,-0.100000)"
fill="#000000" stroke="none">
<path d="M493 1662 l-493 -257 0 -42 c0 -41 1 -43 30 -43 l30 0 0 -620 0 -620
940 0 940 0 0 620 0 620 30 0 c29 0 30 2 30 43 l0 42 -491 255 c-271 140 -499
256 -508 257 -9 1 -238 -114 -508 -255z m87 -912 l0 -570 -215 0 -215 0 0 139
c0 124 2 140 18 145 9 2 63 13 120 23 56 10 102 21 102 25 0 5 -54 8 -120 8
l-121 0 3 72 3 73 80 16 c44 9 97 20 118 23 75 14 35 26 -83 26 l-120 0 0 69
c0 46 4 70 12 74 7 2 58 12 113 22 55 10 104 21 110 26 5 5 -43 9 -113 9
l-122 0 0 74 0 74 120 22 c66 12 120 26 120 31 0 5 -54 9 -120 9 l-120 0 0 90
0 90 215 0 215 0 0 -570z m1268 208 l-3 -363 -587 -3 -588 -2 0 365 0 365 590
0 590 0 -2 -362z"/>
<path d="M180 1205 c0 -34 1 -35 40 -35 39 0 40 1 40 35 0 34 -1 35 -40 35
-39 0 -40 -1 -40 -35z"/>
<path d="M300 1205 c0 -33 2 -35 35 -35 33 0 35 2 35 35 0 33 -2 35 -35 35
-33 0 -35 -2 -35 -35z"/>
<path d="M187 1033 c-4 -3 -7 -21 -7 -40 0 -32 1 -33 40 -33 l40 0 0 40 c0 39
-1 40 -33 40 -19 0 -37 -3 -40 -7z"/>
<path d="M300 1000 c0 -39 1 -40 35 -40 34 0 35 1 35 40 0 39 -1 40 -35 40
-34 0 -35 -1 -35 -40z"/>
<path d="M182 793 c3 -36 5 -38 41 -41 l37 -3 0 40 0 41 -41 0 -40 0 3 -37z"/>
<path d="M300 790 c0 -39 1 -40 35 -40 34 0 35 1 35 40 0 39 -1 40 -35 40 -34
0 -35 -1 -35 -40z"/>
<path d="M187 623 c-4 -3 -7 -21 -7 -40 0 -32 1 -33 40 -33 l40 0 0 40 c0 39
-1 40 -33 40 -19 0 -37 -3 -40 -7z"/>
<path d="M300 590 c0 -39 1 -40 35 -40 34 0 35 1 35 40 0 39 -1 40 -35 40 -34
0 -35 -1 -35 -40z"/>
<path d="M1119 1231 c-31 -32 -39 -84 -18 -123 17 -32 74 -51 115 -38 70 23
88 108 35 161 -41 40 -91 40 -132 0z m113 -5 c44 -33 42 -98 -4 -130 -42 -30
-99 -11 -118 40 -19 49 21 103 75 103 17 0 38 -5 47 -13z"/>
<path d="M1182 1190 c0 -19 2 -27 5 -17 2 9 2 25 0 35 -3 9 -5 1 -5 -18z"/>
<path d="M1360 1185 c0 -16 6 -25 15 -25 12 0 15 -17 15 -95 0 -78 -3 -95 -15
-95 -9 0 -15 -9 -15 -25 0 -16 6 -25 15 -25 12 0 15 -17 15 -90 0 -71 -3 -92
-15 -96 -8 -4 -15 -14 -15 -24 0 -10 7 -20 15 -24 9 -3 15 -18 15 -36 0 -25 4
-30 25 -30 22 0 25 4 25 35 l0 36 143 -3 142 -3 3 -32 c3 -27 7 -33 28 -33 20
0 24 5 24 30 0 18 6 33 15 36 8 4 15 15 15 25 0 10 -7 19 -15 19 -12 0 -15 17
-15 95 0 78 3 95 15 95 9 0 15 9 15 25 0 16 -6 25 -15 25 -12 0 -15 17 -15 95
0 78 3 95 15 95 9 0 15 9 15 25 l0 25 -225 0 -225 0 0 -25z m370 -120 l0 -95
-145 0 -145 0 0 95 0 95 145 0 145 0 0 -95z m0 -240 l0 -95 -145 0 -145 0 0
95 0 95 145 0 145 0 0 -95z"/>
<path d="M1607 1102 c-35 -38 -12 -102 37 -102 49 0 75 70 38 103 -24 22 -55
21 -75 -1z"/>
<path d="M1510 1056 c-27 -33 18 -72 48 -42 13 13 14 20 6 34 -15 23 -38 26
-54 8z"/>
<path d="M1480 806 c0 -43 2 -46 26 -46 23 0 25 3 22 43 -2 35 -7 43 -25 45
-21 3 -23 -1 -23 -42z"/>
<path d="M1550 805 c0 -38 3 -45 20 -45 17 0 20 7 20 45 0 38 -3 45 -20 45
-17 0 -20 -7 -20 -45z"/>
<path d="M1610 805 l0 -45 45 0 45 0 0 45 0 45 -45 0 -45 0 0 -45z"/>
<path d="M879 1091 c-84 -84 35 -210 125 -132 29 25 38 59 26 97 -23 69 -99
86 -151 35z"/>
<path d="M799 861 c-40 -42 -76 -126 -86 -197 -6 -43 -5 -44 24 -44 29 0 31 3
46 65 9 36 23 76 32 88 14 20 15 15 15 -66 0 -71 3 -87 15 -87 13 0 15 22 15
140 0 99 -3 140 -12 140 -6 0 -28 -18 -49 -39z"/>
<path d="M890 865 l0 -35 50 0 50 0 0 35 0 35 -50 0 -50 0 0 -35z"/>
<path d="M1020 760 c0 -132 1 -140 20 -140 17 0 19 8 22 83 l3 82 18 -40 c10
-22 21 -59 24 -82 5 -41 7 -43 39 -43 l34 0 -6 43 c-12 73 -45 149 -87 194
-63 69 -67 64 -67 -97z"/>
</g>
</svg>
